<svg width="50.000000" height="50.000000" viewBox="0 0 50 50" fill="none" xmlns="http://www.w3.org/2000/svg" xmlns:xlink="http://www.w3.org/1999/xlink">
	<desc>
			Created with Pixso.
	</desc>
	<defs>
		<radialGradient gradientTransform="translate(48.3855 23.4356) rotate(164.25) scale(31.9471 23.0164)" cx="0.000000" cy="0.000000" r="1.000000" id="paint_radial_205_58_0" gradientUnits="userSpaceOnUse">
			<stop stop-color="#FF005F"/>
			<stop offset="1.000000" stop-color="#FC01D8"/>
		</radialGradient>
		<radialGradient gradientTransform="translate(13.2809 53.851) rotate(-90) scale(39.911 42.3447)" cx="0.000000" cy="0.000000" r="1.000000" id="paint_radial_205_59_0" gradientUnits="userSpaceOnUse">
			<stop stop-color="#FFCC00"/>
			<stop offset="0.124200" stop-color="#FFCC00"/>
			<stop offset="0.567200" stop-color="#FE4A05"/>
			<stop offset="0.694200" stop-color="#FF0F3F"/>
			<stop offset="1.000000" stop-color="#FE0657" stop-opacity="0.000000"/>
		</radialGradient>
		<radialGradient gradientTransform="translate(26.2635 49.2948) rotate(-59.8703) scale(16.5035 21.4858)" cx="0.000000" cy="0.000000" r="1.000000" id="paint_radial_205_60_0" gradientUnits="userSpaceOnUse">
			<stop stop-color="#FFCC00"/>
			<stop offset="1.000000" stop-color="#FFCC00" stop-opacity="0.000000"/>
		</radialGradient>
		<radialGradient gradientTransform="translate(6.78395 2.03599) rotate(164.274) scale(31.5928 10.7637)" cx="0.000000" cy="0.000000" r="1.000000" id="paint_radial_205_61_0" gradientUnits="userSpaceOnUse">
			<stop stop-color="#780CFF"/>
			<stop offset="1.000000" stop-color="#820BFF" stop-opacity="0.000000"/>
		</radialGradient>
	</defs>
	<mask id="mask205_56" mask-type="alpha" maskUnits="userSpaceOnUse" x="0.000000" y="0.000000" width="50.000000" height="50.000000">
		<rect id="rect" width="50.000000" height="50.000000" fill="#000000" fill-opacity="1.000000"/>
	</mask>
	<g mask="url(#mask205_56)">
		<path id="path" d="M25 0C14.57 0 11.51 0.01 10.92 0.06C8.78 0.23 7.45 0.57 5.99 1.29C4.87 1.85 3.99 2.49 3.12 3.4C1.53 5.04 0.57 7.07 0.23 9.48C0.06 10.65 0.01 10.89 0 16.86C-0.01 18.85 0 21.47 0 24.99C0 35.42 0.01 38.47 0.06 39.06C0.23 41.14 0.56 42.46 1.25 43.89C2.57 46.64 5.1 48.7 8.08 49.47C9.11 49.73 10.24 49.88 11.71 49.95C12.33 49.98 18.64 50 24.95 50C31.26 50 37.58 49.99 38.18 49.96C39.87 49.88 40.86 49.75 41.94 49.46C44.94 48.69 47.42 46.66 48.77 43.88C49.45 42.48 49.79 41.11 49.95 39.14C49.98 38.71 50 31.84 50 24.98C50 18.12 49.98 11.26 49.95 10.83C49.79 8.82 49.44 7.47 48.74 6.05C48.17 4.88 47.53 4.01 46.6 3.11C44.95 1.53 42.93 0.57 40.52 0.22C39.35 0.06 39.12 0.01 33.14 0L25 0Z" fill="url(#paint_radial_205_58_0)" fill-opacity="1.000000" fill-rule="nonzero"/>
		<path id="path" d="M25 0C14.57 0 11.51 0.01 10.92 0.06C8.78 0.23 7.45 0.57 5.99 1.29C4.87 1.85 3.99 2.49 3.12 3.4C1.53 5.04 0.57 7.07 0.23 9.48C0.06 10.65 0.01 10.89 0 16.86C-0.01 18.85 0 21.47 0 24.99C0 35.42 0.01 38.47 0.06 39.06C0.23 41.14 0.56 42.46 1.25 43.89C2.57 46.64 5.1 48.7 8.08 49.47C9.11 49.73 10.24 49.88 11.71 49.95C12.33 49.98 18.64 50 24.95 50C31.26 50 37.58 49.99 38.18 49.96C39.87 49.88 40.86 49.75 41.94 49.46C44.94 48.69 47.42 46.66 48.77 43.88C49.45 42.48 49.79 41.11 49.95 39.14C49.98 38.71 50 31.84 50 24.98C50 18.12 49.98 11.26 49.95 10.83C49.79 8.82 49.44 7.47 48.74 6.05C48.17 4.88 47.53 4.01 46.6 3.11C44.95 1.53 42.93 0.57 40.52 0.22C39.35 0.06 39.12 0.01 33.14 0L25 0Z" fill="url(#paint_radial_205_59_0)" fill-opacity="1.000000" fill-rule="nonzero"/>
		<path id="path" d="M25 0C14.57 0 11.51 0.01 10.92 0.06C8.78 0.23 7.45 0.57 5.99 1.29C4.87 1.85 3.99 2.49 3.12 3.4C1.53 5.04 0.57 7.07 0.23 9.48C0.06 10.65 0.01 10.89 0 16.86C-0.01 18.85 0 21.47 0 24.99C0 35.42 0.01 38.47 0.06 39.06C0.23 41.14 0.56 42.46 1.25 43.89C2.57 46.64 5.1 48.7 8.08 49.47C9.11 49.73 10.24 49.88 11.71 49.95C12.33 49.98 18.64 50 24.95 50C31.26 50 37.58 49.99 38.18 49.96C39.87 49.88 40.86 49.75 41.94 49.46C44.94 48.69 47.42 46.66 48.77 43.88C49.45 42.48 49.79 41.11 49.95 39.14C49.98 38.71 50 31.84 50 24.98C50 18.12 49.98 11.26 49.95 10.83C49.79 8.82 49.44 7.47 48.74 6.05C48.17 4.88 47.53 4.01 46.6 3.11C44.95 1.53 42.93 0.57 40.52 0.22C39.35 0.06 39.12 0.01 33.14 0L25 0Z" fill="url(#paint_radial_205_60_0)" fill-opacity="1.000000" fill-rule="nonzero"/>
		<path id="path" d="M25 0C14.57 0 11.51 0.01 10.92 0.06C8.78 0.23 7.45 0.57 5.99 1.29C4.87 1.85 3.99 2.49 3.12 3.4C1.53 5.04 0.57 7.07 0.23 9.48C0.06 10.65 0.01 10.89 0 16.86C-0.01 18.85 0 21.47 0 24.99C0 35.42 0.01 38.47 0.06 39.06C0.23 41.14 0.56 42.46 1.25 43.89C2.57 46.64 5.1 48.7 8.08 49.47C9.11 49.73 10.24 49.88 11.71 49.95C12.33 49.98 18.64 50 24.95 50C31.26 50 37.58 49.99 38.18 49.96C39.87 49.88 40.86 49.75 41.94 49.46C44.94 48.69 47.42 46.66 48.77 43.88C49.45 42.48 49.79 41.11 49.95 39.14C49.98 38.71 50 31.84 50 24.98C50 18.12 49.98 11.26 49.95 10.83C49.79 8.82 49.44 7.47 48.74 6.05C48.17 4.88 47.53 4.01 46.6 3.11C44.95 1.53 42.93 0.57 40.52 0.22C39.35 0.06 39.12 0.01 33.14 0L25 0Z" fill="url(#paint_radial_205_61_0)" fill-opacity="1.000000" fill-rule="nonzero"/>
		<path id="path" d="M25.01 6.42C19.96 6.42 19.32 6.44 17.34 6.53C15.36 6.62 14.01 6.93 12.83 7.39C11.61 7.86 10.57 8.5 9.53 9.53C8.5 10.57 7.87 11.6 7.39 12.82C6.93 14 6.61 15.35 6.53 17.33C6.44 19.31 6.41 19.95 6.41 24.99C6.41 30.04 6.44 30.67 6.53 32.65C6.62 34.63 6.93 35.98 7.39 37.16C7.86 38.38 8.5 39.42 9.53 40.45C10.57 41.48 11.6 42.12 12.83 42.59C14.01 43.05 15.36 43.37 17.34 43.46C19.32 43.55 19.95 43.57 25 43.57C30.05 43.57 30.68 43.55 32.67 43.46C34.65 43.37 36 43.05 37.18 42.59C38.4 42.12 39.44 41.48 40.47 40.45C41.51 39.42 42.14 38.38 42.62 37.16C43.07 35.98 43.39 34.63 43.48 32.65C43.57 30.67 43.59 30.04 43.59 24.99C43.59 19.95 43.57 19.31 43.48 17.33C43.39 15.35 43.07 14 42.62 12.82C42.14 11.6 41.51 10.57 40.47 9.53C39.44 8.5 38.4 7.86 37.18 7.39C35.99 6.93 34.64 6.62 32.66 6.53C30.68 6.44 30.05 6.42 25 6.42L25.01 6.42ZM23.34 9.76C23.83 9.76 24.38 9.76 25.01 9.76C29.97 9.76 30.56 9.78 32.52 9.87C34.33 9.95 35.31 10.26 35.97 10.51C36.84 10.85 37.45 11.25 38.11 11.9C38.76 12.55 39.16 13.17 39.5 14.04C39.75 14.69 40.05 15.67 40.14 17.48C40.23 19.44 40.24 20.03 40.24 24.99C40.24 29.95 40.23 30.53 40.14 32.49C40.05 34.3 39.75 35.29 39.5 35.94C39.16 36.81 38.76 37.42 38.11 38.07C37.45 38.72 36.84 39.13 35.97 39.46C35.31 39.72 34.33 40.02 32.52 40.1C30.56 40.19 29.97 40.21 25.01 40.21C20.04 40.21 19.45 40.19 17.49 40.1C15.68 40.02 14.7 39.72 14.04 39.46C13.17 39.13 12.55 38.72 11.9 38.07C11.25 37.42 10.85 36.81 10.51 35.94C10.26 35.28 9.95 34.3 9.87 32.49C9.78 30.53 9.76 29.94 9.76 24.98C9.76 20.02 9.78 19.44 9.87 17.48C9.95 15.67 10.26 14.68 10.51 14.03C10.85 13.16 11.25 12.54 11.9 11.89C12.55 11.24 13.17 10.84 14.04 10.5C14.7 10.25 15.68 9.95 17.49 9.86C19.21 9.79 19.87 9.77 23.34 9.76ZM34.93 12.85C33.7 12.85 32.7 13.84 32.7 15.08C32.7 16.31 33.7 17.3 34.93 17.3C36.16 17.3 37.16 16.31 37.16 15.08C37.16 13.85 36.16 12.85 34.93 12.85ZM25.01 15.45C19.73 15.45 15.46 19.72 15.46 24.99C15.46 30.26 19.73 34.53 25.01 34.53C30.28 34.53 34.55 30.26 34.55 24.99C34.55 19.72 30.28 15.45 25.01 15.45ZM25.01 18.8C28.43 18.8 31.2 21.57 31.2 24.99C31.2 28.41 28.43 31.18 25.01 31.18C21.58 31.18 18.81 28.41 18.81 24.99C18.81 21.57 21.58 18.8 25.01 18.8Z" fill="#FFFFFF" fill-opacity="1.000000" fill-rule="nonzero"/>
	</g>
</svg>
