<svg width="50.000000" height="50.000000" viewBox="0 0 50 50" fill="none" xmlns="http://www.w3.org/2000/svg" xmlns:xlink="http://www.w3.org/1999/xlink">
	<desc>
			Created with Pixso.
	</desc>
	<defs/>
	<rect id="Прямоугольник 7" width="50.000000" height="50.000000" fill="#0077FF" fill-opacity="1.000000"/>
	<path id="svg_7" d="M26.6 36.01C15.2 36.01 8.7 28.2 8.43 15.2L14.14 15.2C14.33 24.75 18.54 28.79 21.87 29.61L21.87 15.2L27.25 15.2L27.25 23.42C30.54 23.07 34 19.32 35.16 15.2L40.54 15.2C39.61 19.71 37.16 23.17 33.22 25.57C37.64 27.77 40.5 31.25 41.79 36.01L35.87 36.01C35.31 34.01 34.25 32.34 32.68 31C31.11 29.63 29.3 28.83 27.25 28.57L27.25 36.01L26.6 36.01Z" fill="#FFFFFF" fill-opacity="1.000000" fill-rule="nonzero"/>
</svg>
