<svg width="51" height="50" viewBox="0 0 51 50" fill="none" xmlns="http://www.w3.org/2000/svg">
<path fill-rule="evenodd" clip-rule="evenodd" d="M3.96774 3.51472C0.558175 6.9243 0.456174 12.3498 0.453125 22.9997C9.9971 22.9997 15.9559 18.9023 21.1828 15.3081C25.2661 12.5004 28.9027 9.9997 33.4531 9.9997C40.2258 9.9997 46.1393 14.7884 49.275 17.3276C49.7171 17.6857 50.1041 17.999 50.4305 18.2479C50.3315 10.6547 49.7989 6.37525 46.9383 3.51472C43.4236 1.66893e-06 37.7668 1.16392e-06 26.453 1.74845e-07L24.453 0C13.1393 2.82562e-06 7.48245 2.38419e-06 3.96774 3.51472ZM22.9831 49.9997C23.4622 50 23.9521 50 24.4531 50H26.453C26.954 50 27.4439 50 27.9229 49.9997H22.9831Z" fill="#0077FF"/>
<path fill-rule="evenodd" clip-rule="evenodd" d="M0.453221 22.9997C9.99721 22.9996 15.956 18.9022 21.1829 15.3081C25.2662 12.5003 28.9028 9.99969 33.4531 9.99969C40.2259 9.99969 46.1394 14.7884 49.275 17.3276C49.7172 17.6856 50.1042 17.999 50.4306 18.2478C50.4531 19.9843 50.4531 21.8942 50.4531 24V26C50.4531 37.3137 50.4531 42.9705 46.9384 46.4853C43.5793 49.8444 38.2635 49.9931 27.9227 49.9997H22.9835C12.6428 49.9931 7.32696 49.8444 3.96784 46.4853C0.453124 42.9705 0.453124 37.3137 0.453125 26L0.453126 24C0.453126 23.6615 0.453126 23.3281 0.453221 22.9997Z" fill="#F45FFF"/>
<path d="M39.2034 25.4876C39.2034 24.2518 40.2176 23.2501 41.4534 23.2501C42.6891 23.2501 43.7034 24.2518 43.7034 25.4876V34.5126C43.7034 35.7483 42.6891 36.7501 41.4534 36.7501C40.2176 36.7501 39.2034 35.7483 39.2034 34.5126V25.4876Z" fill="white"/>
<path d="M31.2036 19.7376C31.2036 18.5019 32.2179 17.5001 33.4536 17.5001C34.6894 17.5001 35.7036 18.5019 35.7036 19.7376V40.2626C35.7036 41.4984 34.6894 42.5001 33.4536 42.5001C32.2179 42.5001 31.2036 41.4984 31.2036 40.2626V19.7376Z" fill="white"/>
<path d="M23.2036 25.4876C23.2036 24.2518 24.2179 23.2501 25.4536 23.2501C26.6894 23.2501 27.7036 24.2518 27.7036 25.4876V34.5126C27.7036 35.7483 26.6894 36.7501 25.4536 36.7501C24.2179 36.7501 23.2036 35.7483 23.2036 34.5126V25.4876Z" fill="white"/>
<path d="M15.2026 28.7374C15.2026 27.5017 16.2169 26.4999 17.4526 26.4999C18.6884 26.4999 19.7026 27.5017 19.7026 28.7374V31.2624C19.7026 32.4982 18.6884 33.4999 17.4526 33.4999C16.2169 33.4999 15.2026 32.4982 15.2026 31.2624V28.7374Z" fill="white"/>
<path d="M7.20264 28.7374C7.20264 27.5017 8.21694 26.4999 9.45264 26.4999C10.6884 26.4999 11.7026 27.5017 11.7026 28.7374V31.2624C11.7026 32.4982 10.6884 33.4999 9.45264 33.4999C8.21694 33.4999 7.20264 32.4982 7.20264 31.2624V28.7374Z" fill="white"/>
</svg>
